# xmcd
# 
# Track frame offsets:
#     150
#     26263
#     41018
# 
# Disc length: 892
# 
# Revision: 2
# Processed by: cddbd v1.5.2PL0 Copyright (c) Steve Scherf et al.
# Submitted via: BonkEnc v1.0.6
# 
DISCID=19037a03
DTITLE=中島美嘉 - 永遠の詩
DYEAR=0
DGENRE=JPop
TTITLE0=永遠の詩
TTITLE1=You'd Be So Nice To Come Home To
TTITLE2=永遠の詩
EXTD=
EXTT0=
EXTT1=
EXTT2=
PLAYORDER=
